<svg id="Capa_1" data-name="Capa 1" xmlns="http://www.w3.org/2000/svg" viewBox="0 0 162.74 161.67"><defs><style>.cls-1{fill:#d3ecec;}.cls-2{fill:#035e63;}</style></defs><circle class="cls-1" cx="81.12" cy="81.31" r="78.48"/><path class="cls-2" d="M104.64,46.76H46.79A2.75,2.75,0,0,0,44,49.51V113.1a2.76,2.76,0,0,0,2.75,2.76h68.66a2.76,2.76,0,0,0,2.75-2.76V49.51a2.75,2.75,0,0,0-2.75-2.75Zm5.14,7v8.57h-5.21a4.8,4.8,0,0,1-3.47-1.13A4.29,4.29,0,0,1,99.94,58a4.14,4.14,0,0,1,1.16-3.1,4.76,4.76,0,0,1,3.47-1.14Zm-57.32,0h5.21a4.74,4.74,0,0,1,3.47,1.14A4.14,4.14,0,0,1,62.3,58a4.29,4.29,0,0,1-1.16,3.2,4.78,4.78,0,0,1-3.47,1.13H52.46Zm0,14.52h2l7.18,13-7.18,13h-2V68.26Zm0,40.61V100.3h5.21a4.74,4.74,0,0,1,3.47,1.14,4.26,4.26,0,0,1,1.16,3.19,4.13,4.13,0,0,1-1.16,3.1,4.74,4.74,0,0,1-3.47,1.14Zm17.74,0a11.31,11.31,0,0,0,.66-3.89,10.23,10.23,0,0,0-1.94-6.15A10.44,10.44,0,0,0,63.19,95l8-13.68-8-13.69a10.44,10.44,0,0,0,5.73-3.84,10.23,10.23,0,0,0,1.94-6.15,11.22,11.22,0,0,0-.75-4.13h6.34v55.37ZM84.86,53.5h7.27a11.22,11.22,0,0,0-.75,4.13,10.3,10.3,0,0,0,1.94,6.15,10.43,10.43,0,0,0,5.74,3.84l-8,13.69,8,13.68a10.43,10.43,0,0,0-5.74,3.84A10.3,10.3,0,0,0,91.38,105a11.31,11.31,0,0,0,.66,3.89H84.86Zm19.71,55.37a4.76,4.76,0,0,1-3.47-1.14,4.13,4.13,0,0,1-1.16-3.1,4.26,4.26,0,0,1,1.16-3.19,4.76,4.76,0,0,1,3.47-1.14h5.21v8.57Zm5.21-14.52h-2l-7.19-13,7.19-13h2V94.35Z"/></svg>